<?xml version="1.0" encoding="UTF-8"?>
<svg xmlns="http://www.w3.org/2000/svg" xmlns:xlink="http://www.w3.org/1999/xlink" width="50px" height="50px" viewBox="0 0 50 50" version="1.1">
<g id="surface1">
<rect x="0" y="0" width="50" height="50" style="fill:rgb(11.372549%,89.803922%,92.54902%);fill-opacity:1;stroke:none;"/>
<path style=" stroke:none;fill-rule:nonzero;fill:rgb(12.156863%,13.72549%,54.901961%);fill-opacity:1;" d="M 38.496094 2.273438 L 11.503906 2.273438 C 8.765625 2.273438 6.535156 4.503906 6.535156 7.246094 L 6.535156 47.019531 C 6.535156 47.410156 6.851562 47.726562 7.246094 47.726562 L 11.503906 47.726562 C 11.898438 47.726562 12.214844 47.410156 12.214844 47.019531 L 12.214844 43.464844 L 37.785156 43.464844 L 37.785156 47.019531 C 37.785156 47.410156 38.101562 47.726562 38.496094 47.726562 L 42.757812 47.726562 C 43.148438 47.726562 43.464844 47.410156 43.464844 47.019531 L 43.464844 7.246094 C 43.464844 4.503906 41.234375 2.273438 38.496094 2.273438 Z M 42.046875 46.308594 L 39.207031 46.308594 L 39.207031 42.757812 C 39.207031 42.363281 38.886719 42.046875 38.496094 42.046875 L 11.503906 42.046875 C 11.113281 42.046875 10.796875 42.363281 10.796875 42.757812 L 10.796875 46.308594 L 7.953125 46.308594 L 7.953125 7.246094 C 7.953125 5.285156 9.546875 3.691406 11.503906 3.691406 L 38.496094 3.691406 C 40.453125 3.691406 42.046875 5.285156 42.046875 7.246094 Z M 42.046875 46.308594 "/>
<path style=" stroke:none;fill-rule:nonzero;fill:rgb(12.156863%,13.72549%,54.901961%);fill-opacity:1;" d="M 38.496094 16.476562 L 36.363281 16.476562 C 35.972656 16.476562 35.652344 16.796875 35.652344 17.1875 C 35.652344 17.578125 35.972656 17.898438 36.363281 17.898438 L 37.785156 17.898438 L 37.785156 37.785156 L 16.476562 37.785156 C 16.085938 37.785156 15.765625 38.101562 15.765625 38.496094 C 15.765625 38.886719 16.085938 39.207031 16.476562 39.207031 L 38.496094 39.207031 C 38.886719 39.207031 39.207031 38.886719 39.207031 38.496094 L 39.207031 17.1875 C 39.207031 16.796875 38.886719 16.476562 38.496094 16.476562 Z M 38.496094 16.476562 "/>
<path style=" stroke:none;fill-rule:nonzero;fill:rgb(12.156863%,13.72549%,54.901961%);fill-opacity:1;" d="M 13.636719 37.785156 L 12.214844 37.785156 L 12.214844 17.898438 L 33.523438 17.898438 C 33.914062 17.898438 34.234375 17.578125 34.234375 17.1875 C 34.234375 16.796875 33.914062 16.476562 33.523438 16.476562 L 11.503906 16.476562 C 11.113281 16.476562 10.796875 16.796875 10.796875 17.1875 L 10.796875 38.496094 C 10.796875 38.886719 11.113281 39.207031 11.503906 39.207031 L 13.636719 39.207031 C 14.027344 39.207031 14.347656 38.886719 14.347656 38.496094 C 14.347656 38.101562 14.027344 37.785156 13.636719 37.785156 Z M 13.636719 37.785156 "/>
<path style=" stroke:none;fill-rule:nonzero;fill:rgb(12.156863%,13.72549%,54.901961%);fill-opacity:1;" d="M 38.316406 9.375 L 11.683594 9.375 C 11.195312 9.375 10.796875 9.773438 10.796875 10.261719 L 10.796875 12.75 C 10.796875 13.238281 11.195312 13.636719 11.683594 13.636719 L 38.316406 13.636719 C 38.808594 13.636719 39.207031 13.238281 39.207031 12.75 L 39.207031 10.261719 C 39.207031 9.773438 38.808594 9.375 38.316406 9.375 Z M 37.785156 12.214844 L 12.214844 12.214844 L 12.214844 10.796875 L 37.785156 10.796875 Z M 37.785156 12.214844 "/>
<path style=" stroke:none;fill-rule:nonzero;fill:rgb(12.156863%,13.72549%,54.901961%);fill-opacity:1;" d="M 18.609375 34.945312 L 31.390625 34.945312 C 33.351562 34.945312 34.945312 33.351562 34.945312 31.390625 L 34.945312 24.289062 C 34.945312 22.332031 33.351562 20.738281 31.390625 20.738281 L 18.609375 20.738281 C 16.648438 20.738281 15.058594 22.332031 15.058594 24.289062 L 15.058594 31.390625 C 15.058594 33.351562 16.648438 34.945312 18.609375 34.945312 Z M 31.390625 33.523438 L 18.609375 33.523438 C 17.433594 33.523438 16.476562 32.566406 16.476562 31.390625 L 16.476562 24.433594 L 23.425781 29.066406 C 23.902344 29.382812 24.453125 29.542969 25 29.542969 C 25.550781 29.542969 26.097656 29.382812 26.578125 29.066406 L 33.523438 24.433594 L 33.523438 31.390625 C 33.523438 32.566406 32.566406 33.523438 31.390625 33.523438 Z M 18.609375 22.160156 L 31.390625 22.160156 C 32.089844 22.160156 32.707031 22.496094 33.097656 23.011719 L 25.789062 27.882812 C 25.308594 28.203125 24.691406 28.203125 24.210938 27.882812 L 16.90625 23.011719 C 17.292969 22.496094 17.914062 22.160156 18.609375 22.160156 Z M 18.609375 22.160156 "/>
</g>
</svg>
