<svg xmlns="http://www.w3.org/2000/svg" xmlns:xlink="http://www.w3.org/1999/xlink" version="1.1" width="1000" height="1000" viewBox="0 0 1000 1000" xml:space="preserve">
<desc>Created with Fabric.js 3.5.0</desc>
<defs>
</defs>
<rect x="0" y="0" width="100%" height="100%" fill="#1de5ec"/>
<g transform="matrix(1.7756 0 0 1.7756 500.0081 500.0081)" id="710689">
<g style="" vector-effect="non-scaling-stroke">
		<g transform="matrix(1 0 0 1 0 0)" id="Capa_1">
<path style="stroke: none; stroke-width: 1; stroke-dasharray: none; stroke-linecap: butt; stroke-dashoffset: 0; stroke-linejoin: miter; stroke-miterlimit: 4; is-custom-font: none; font-file-url: none; fill: rgb(31,35,140); fill-rule: nonzero; opacity: 1;" transform=" translate(-256, -256)" d="M 408 0 H 104 C 73.122 0 48 25.122 48 56 v 448 c 0 4.418 3.582 8 8 8 h 48 c 4.418 0 8 -3.582 8 -8 v -40 h 288 v 40 c 0 4.418 3.582 8 8 8 h 48 c 4.418 0 8 -3.582 8 -8 V 56 C 464 25.122 438.878 0 408 0 z M 448 496 h -32 v -40 c 0 -4.418 -3.582 -8 -8 -8 H 104 c -4.418 0 -8 3.582 -8 8 v 40 H 64 V 56 c 0 -22.056 17.944 -40 40 -40 h 304 c 22.056 0 40 17.944 40 40 V 496 z" stroke-linecap="round"/>
</g>
		<g transform="matrix(1 0 0 1 27.999 32)" id="Capa_1">
<path style="stroke: none; stroke-width: 1; stroke-dasharray: none; stroke-linecap: butt; stroke-dashoffset: 0; stroke-linejoin: miter; stroke-miterlimit: 4; is-custom-font: none; font-file-url: none; fill: rgb(31,35,140); fill-rule: nonzero; opacity: 1;" transform=" translate(-283.999, -288)" d="M 408 160 h -23.997 c -4.418 0 -8 3.582 -8 8 s 3.582 8 8 8 H 400 v 224 H 159.998 c -4.418 0 -8 3.582 -8 8 s 3.582 8 8 8 H 408 c 4.418 0 8 -3.582 8 -8 V 168 C 416 163.582 412.418 160 408 160 z" stroke-linecap="round"/>
</g>
		<g transform="matrix(1 0 0 1 -27.999 32)" id="Capa_1">
<path style="stroke: none; stroke-width: 1; stroke-dasharray: none; stroke-linecap: butt; stroke-dashoffset: 0; stroke-linejoin: miter; stroke-miterlimit: 4; is-custom-font: none; font-file-url: none; fill: rgb(31,35,140); fill-rule: nonzero; opacity: 1;" transform=" translate(-228.001, -288)" d="M 127.997 400 H 112 V 176 h 240.002 c 4.418 0 8 -3.582 8 -8 s -3.582 -8 -8 -8 H 104 c -4.418 0 -8 3.582 -8 8 v 240 c 0 4.418 3.582 8 8 8 h 23.997 c 4.418 0 8 -3.582 8 -8 S 132.416 400 127.997 400 z" stroke-linecap="round"/>
</g>
		<g transform="matrix(1 0 0 1 0 -152)" id="Capa_1">
<path style="stroke: none; stroke-width: 1; stroke-dasharray: none; stroke-linecap: butt; stroke-dashoffset: 0; stroke-linejoin: miter; stroke-miterlimit: 4; is-custom-font: none; font-file-url: none; fill: rgb(31,35,140); fill-rule: nonzero; opacity: 1;" transform=" translate(-256, -104)" d="M 406 80 H 106 c -5.514 0 -10 4.486 -10 10 v 28 c 0 5.514 4.486 10 10 10 h 300 c 5.514 0 10 -4.486 10 -10 V 90 C 416 84.486 411.514 80 406 80 z M 400 112 H 112 V 96 h 288 V 112 z" stroke-linecap="round"/>
</g>
		<g transform="matrix(1 0 0 1 0 32)" id="Capa_1">
<path style="stroke: none; stroke-width: 1; stroke-dasharray: none; stroke-linecap: butt; stroke-dashoffset: 0; stroke-linejoin: miter; stroke-miterlimit: 4; is-custom-font: none; font-file-url: none; fill: rgb(31,35,140); fill-rule: nonzero; opacity: 1;" transform=" translate(-256, -288)" d="M 184 368 h 144 c 22.056 0 40 -17.944 40 -40 v -80 c 0 -22.056 -17.944 -40 -40 -40 H 184 c -22.056 0 -40 17.944 -40 40 v 80 C 144 350.056 161.944 368 184 368 z M 328 352 H 184 c -13.233 0 -24 -10.766 -24 -24 v -78.385 l 78.25 52.167 c 5.392 3.594 11.571 5.391 17.75 5.391 s 12.359 -1.797 17.75 -5.391 L 352 249.615 V 328 C 352 341.234 341.233 352 328 352 z M 184 224 h 144 c 7.833 0 14.801 3.773 19.184 9.596 l -82.308 54.872 c -5.392 3.594 -12.358 3.595 -17.751 0 l -82.308 -54.872 C 169.199 227.773 176.167 224 184 224 z" stroke-linecap="round"/>
</g>
</g>
</g>
</svg>