<?xml version="1.0" encoding="iso-8859-1"?>
<!-- Generator: Adobe Illustrator 17.1.0, SVG Export Plug-In . SVG Version: 6.00 Build 0)  -->
<!DOCTYPE svg PUBLIC "-//W3C//DTD SVG 1.1//EN" "http://www.w3.org/Graphics/SVG/1.1/DTD/svg11.dtd">
<svg version="1.1" id="Capa_1" xmlns="http://www.w3.org/2000/svg" xmlns:xlink="http://www.w3.org/1999/xlink" x="0px" y="0px"
	 viewBox="0 0 512 512" style="enable-background:new 0 0 512 512;" xml:space="preserve">
<g>
	<path d="M408,0H104C73.122,0,48,25.122,48,56v448c0,4.418,3.582,8,8,8h48c4.418,0,8-3.582,8-8v-40h288v40c0,4.418,3.582,8,8,8h48
		c4.418,0,8-3.582,8-8V56C464,25.122,438.878,0,408,0z M448,496h-32v-40c0-4.418-3.582-8-8-8H104c-4.418,0-8,3.582-8,8v40H64V56
		c0-22.056,17.944-40,40-40h304c22.056,0,40,17.944,40,40V496z"/>
	<path d="M408,160h-23.997c-4.418,0-8,3.582-8,8s3.582,8,8,8H400v224H159.998c-4.418,0-8,3.582-8,8s3.582,8,8,8H408
		c4.418,0,8-3.582,8-8V168C416,163.582,412.418,160,408,160z"/>
	<path d="M127.997,400H112V176h240.002c4.418,0,8-3.582,8-8s-3.582-8-8-8H104c-4.418,0-8,3.582-8,8v240c0,4.418,3.582,8,8,8h23.997
		c4.418,0,8-3.582,8-8S132.416,400,127.997,400z"/>
	<path d="M406,80H106c-5.514,0-10,4.486-10,10v28c0,5.514,4.486,10,10,10h300c5.514,0,10-4.486,10-10V90
		C416,84.486,411.514,80,406,80z M400,112H112V96h288V112z"/>
	<path d="M184,368h144c22.056,0,40-17.944,40-40v-80c0-22.056-17.944-40-40-40H184c-22.056,0-40,17.944-40,40v80
		C144,350.056,161.944,368,184,368z M328,352H184c-13.233,0-24-10.766-24-24v-78.385l78.25,52.167
		c5.392,3.594,11.571,5.391,17.75,5.391s12.359-1.797,17.75-5.391L352,249.615V328C352,341.234,341.233,352,328,352z M184,224h144
		c7.833,0,14.801,3.773,19.184,9.596l-82.308,54.872c-5.392,3.594-12.358,3.595-17.751,0l-82.308-54.872
		C169.199,227.773,176.167,224,184,224z"/>
</g>
<g>
</g>
<g>
</g>
<g>
</g>
<g>
</g>
<g>
</g>
<g>
</g>
<g>
</g>
<g>
</g>
<g>
</g>
<g>
</g>
<g>
</g>
<g>
</g>
<g>
</g>
<g>
</g>
<g>
</g>
</svg>
