<svg xmlns="http://www.w3.org/2000/svg" viewBox="0 0 64 64"><path fill="#bedcff" d="M48 17H16a16 16 0 0 1 32 0zm-32 5v35h32V22zm26 27H22V35h20z"/><path fill="#fcd8aa" d="M42 35v14H22V35l10 7 10-7z"/><path fill="#ffc578" d="m42 35-10 7-10-7h20z"/><path fill="#00459a" d="M13 17h38v5H13zM12 57h40v5H12z"/><path d="M22 26h20v4H22zM42 33H22a2 2 0 0 0-2 2v14a2 2 0 0 0 2 2h20a2 2 0 0 0 2-2V35a2 2 0 0 0-2-2Zm-6.11 4L32 39.6 28.11 37ZM24 47v-7.93l6.89 4.59a2 2 0 0 0 2.22 0L40 39.07V47Z"/><path d="M52 55h-2V24h1a2 2 0 0 0 2-2v-5a2 2 0 0 0-2-2h-1.26a18 18 0 0 0-35.48 0H13a2 2 0 0 0-2 2v5a2 2 0 0 0 2 2h1v31h-2a2 2 0 0 0-2 2v5a2 2 0 0 0 2 2h40a2 2 0 0 0 2-2v-5a2 2 0 0 0-2-2ZM15 20v-1h34v1ZM32 4a13.93 13.93 0 0 1 13.66 11H18.34A14 14 0 0 1 32 4ZM18 24h28v31H18Zm32 36H14v-1h36Z"/></svg>